<svg xmlns="http://www.w3.org/2000/svg" xmlns:xlink="http://www.w3.org/1999/xlink" id="express" x="0" y="0" version="1.1" viewBox="0 0 180 180" style="enable-background:new 0 0 180 180" xml:space="preserve"><style type="text/css">.st0{display:none}.st0,.st1{fill:#fff}</style><path d="M58.5,108.5V72.2h2v5.7c0.2-0.3,0.4-0.5,0.6-0.8c1.6-3.4,5.1-5.6,8.9-5.5c4.5-0.1,8.1,1.5,10.3,5.5	c2.8,5,2.9,11.1,0.4,16.3c-2,4.5-6.9,6.7-12.2,5.9c-3.3-0.3-6.3-2.2-7.9-5.2v14.4H58.5z M60.5,85.1c0.2,1.8,0.2,3,0.4,4.3	c0.8,4.9,3.6,7.7,8.2,8.3c4.4,0.7,8.6-1.7,10.2-5.9c1.8-4.2,1.6-8.9-0.3-13c-1.7-3.7-5.6-5.9-9.6-5.3c-3.8,0.3-6.9,2.9-7.9,6.5	C61,81.6,60.7,83.3,60.5,85.1z M122.7,90c-0.6,5.3-5.1,9.3-10.4,9.4c-8.3,0.4-12.1-5.1-12.8-11.4c-0.4-3.4,0.1-6.9,1.6-10.1	c2.1-4.4,6.8-6.9,11.7-6.3c4.6,0.4,8.4,3.7,9.5,8.2c0.4,2,0.7,4,0.9,6h-21.7c-0.4,5.7,2.7,10.4,7.1,11.5c5.4,1.3,10.1-1,11.8-6.2	C120.8,89.8,121.5,89.6,122.7,90z M101.6,84H121c-0.1-6.1-3.9-10.5-9.1-10.6C106.1,73.3,101.9,77.6,101.6,84z M126.7,90.1h1.9	c0.1,2.9,1.9,5.4,4.5,6.6c3.3,1.5,7,1.4,10.2-0.3c1.7-0.8,2.8-2.6,2.7-4.5c0.1-1.8-1-3.5-2.8-4.1c-2.1-0.8-4.3-1.2-6.4-1.9	c-2.2-0.6-4.4-1.4-6.5-2.4c-3.4-1.7-3.6-8.2,0.2-10.3c4-2.3,9-2.4,13.1-0.2c2.5,1.4,3.9,4.2,3.5,7h-1.6c0-0.1-0.1-0.1-0.1-0.2	c-0.2-5.2-4.6-6.8-9.3-6.4c-1.4,0.2-2.8,0.6-4,1.2c-1.6,0.7-2.5,2.3-2.3,4c0,1.7,1.1,3.2,2.7,3.8c2.1,0.8,4.2,1.2,6.3,1.8	c1.7,0.5,3.5,0.8,5.1,1.3c2.4,0.8,4,3,4.2,5.5c0.4,2.7-1,5.5-3.5,6.7c-4.5,2.5-11.9,1.9-15.1-1.3C127.6,94.8,126.7,92.5,126.7,90.1z M172.1,80.1h-1.8c0-0.2-0.1-0.5-0.1-0.7c-0.1-2.8-2-5.1-4.7-5.6c-2.5-0.7-5.1-0.6-7.5,0.4c-1.9,0.6-3.3,2.3-3.3,4.4	c-0.1,2,1.3,3.8,3.2,4.2c2.7,0.8,5.4,1.3,8.2,2.1c0.9,0.2,1.8,0.5,2.6,0.8c3.5,1.2,5.3,5.1,4.1,8.6c-0.6,1.8-2,3.2-3.7,3.9	c-3.8,1.7-8.2,1.8-12.1,0.1c-3.2-1.4-5.2-4.6-5-8.1h0.8h1c1.1,5.3,6.3,8.7,11.6,7.6c1.2-0.2,2.3-0.7,3.3-1.4	c1.7-0.9,2.7-2.6,2.6-4.5c0.1-1.9-1.1-3.5-2.8-4.1c-2.1-0.8-4.3-1.2-6.4-1.9c-2.2-0.6-4.4-1.4-6.5-2.3c-3.4-1.6-3.6-8.1,0.2-10.2	c4.1-2.4,9.1-2.4,13.3-0.1C171.1,74.6,172.4,77.3,172.1,80.1z M55.3,98.7c-1.5,0.6-3.1-0.1-3.8-1.4c-2.2-3.3-4.6-6.4-6.9-9.6l-1-1.3	c-2.8,3.7-5.5,7.3-8,10.9c-0.7,1.3-2.2,1.9-3.6,1.4l10.4-13.9l-9.6-12.6c1.4-0.5,3,0,3.8,1.3c2.2,3.3,4.7,6.4,7.2,9.7	c2.5-3.3,4.9-6.4,7.2-9.7c0.7-1.3,2.2-1.9,3.6-1.3l-3.7,5c-1.7,2.2-3.3,4.4-5.1,6.6c-0.6,0.5-0.6,1.3-0.1,1.9c0,0,0.1,0.1,0.1,0.1	C48.8,90.1,52,94.4,55.3,98.7z M99.3,72.1V74c-5.4-0.4-10,3.7-10.3,9.1c0,0.3,0,0.7,0,1c0,4.4,0,8.8,0,13.2c0,0.5,0,0.9,0,1.5H87	V72.2h1.9v5.4C91.2,73.7,94.8,72.2,99.3,72.1z M7,84.6c0.3-1.3,0.5-2.8,0.8-4.2c2.3-8.2,11.8-11.7,18.3-6.6c3.8,3,4.8,7.2,4.6,12	H9.3c-0.3,8.5,5.8,13.7,13.7,11c2.6-0.9,4.5-3.1,5.2-5.8c0.4-1.3,1.1-1.6,2.4-1.2c-0.4,3.3-2.3,6.2-5.2,8	c-4.8,2.6-10.7,1.9-14.7-1.9c-1.9-2.2-3.1-4.9-3.3-7.7c0-0.5-0.2-0.9-0.3-1.3C7,86.2,7,85.4,7,84.6z M9.3,84.1h19.4	c-0.1-6.2-4-10.6-9.2-10.6C13.7,73.4,9.5,77.7,9.3,84.1L9.3,84.1z" class="st0"/><path d="M171,137.1c-5.9,1.5-9.5,0.1-12.8-4.8c-7.3-11-15.4-21.5-23.3-32.2c-1-1.4-2.1-2.7-3.4-4.5	c-9.3,12.5-18.5,24.4-27.2,36.7c-3.1,4.4-6.4,6.3-12.1,4.8l34.8-46.7L94.7,48.3c5.6-1.1,9.4-0.5,12.8,4.5	c7.5,11,15.8,21.5,24.1,32.6c8.3-11,16.5-21.5,24.3-32.4c3.1-4.4,6.5-6.1,12.1-4.5c-4.2,5.6-8.4,11.2-12.6,16.6	c-5.6,7.4-11.2,14.9-17,22.1c-2.1,2.6-1.7,4.3,0.1,6.7C149.3,108.1,160,122.4,171,137.1z M9,89.7c0.9-4.7,1.6-9.4,2.8-14	c7.8-27.7,39.5-39.2,61.4-22c12.8,10.1,16,24.3,15.3,40.3H16.5c-1.1,28.7,19.6,46,45.9,37.2c9.2-3.1,14.7-10.3,17.4-19.4	c1.4-4.5,3.7-5.2,7.9-4c-2.2,11.3-7.1,20.8-17.5,26.7c-15.5,8.9-37.6,6-49.3-6.3c-6.9-7.2-9.8-16.2-11.1-26	c-0.2-1.6-0.6-3.1-0.9-4.6C9,94.9,9,92.3,9,89.7z M16.6,87.8h65.2c-0.4-20.8-13.3-35.5-31-35.6C31.4,52,17.5,66.4,16.6,87.8z" class="st1"/></svg>