<?xml version="1.0" encoding="utf-8"?>
<!-- Generator: Adobe Illustrator 27.1.1, SVG Export Plug-In . SVG Version: 6.00 Build 0)  -->
<svg version="1.1" id="Capa_1" xmlns="http://www.w3.org/2000/svg" xmlns:xlink="http://www.w3.org/1999/xlink" x="0px" y="0px"
	 viewBox="0 0 60 60" style="enable-background:new 0 0 60 60;" xml:space="preserve">
<style type="text/css">
	.st0{fill:url(#SVGID_1_);}
	.st1{fill:url(#SVGID_00000114780955386659905690000014475829351101642116_);}
	.st2{fill:url(#SVGID_00000133524387769140765250000003547937082533984923_);}
	.st3{fill:url(#SVGID_00000145780479954822063730000009085013184880469127_);}
	.st4{fill:url(#SVGID_00000149373842118514204800000007095615009455093666_);}
	.st5{fill:url(#SVGID_00000044154324501599195640000006861166921823845766_);}
	.st6{fill:url(#SVGID_00000053513032007262631810000011513410402554283662_);}
	.st7{fill:url(#SVGID_00000182488127374337562030000017326976831352610986_);}
	.st8{fill:url(#SVGID_00000042702413384725907190000008741710686377480628_);}
	.st9{fill:url(#SVGID_00000113328494042330977710000006657216543912398241_);}
	.st10{fill:url(#SVGID_00000112613620076954520250000007677726229361283487_);}
	.st11{fill:url(#SVGID_00000106144002093173665620000003534816773930023584_);}
	.st12{fill:url(#SVGID_00000019677434051213441170000009934493614420068285_);}
	.st13{fill:url(#SVGID_00000052799410250437385430000000516350688066813842_);}
	.st14{fill:url(#SVGID_00000078728609686814030930000004621054492256765872_);}
</style>
<g>
	<g>
		<linearGradient id="SVGID_1_" gradientUnits="userSpaceOnUse" x1="0" y1="30" x2="60" y2="30">
			<stop  offset="0" style="stop-color:#DC468B"/>
			<stop  offset="0.5028" style="stop-color:#734AFD"/>
			<stop  offset="1" style="stop-color:#248FFE"/>
		</linearGradient>
		<path class="st0" d="M59,0H1C0.4,0,0,0.4,0,1v46c0,0.6,0.4,1,1,1h22v10h-3v2h4h12h4v-2h-3V48h22c0.6,0,1-0.4,1-1V1
			C60,0.4,59.6,0,59,0z M35,58H25V48h10V58z M58,46H36H24H2v-8h3h22h6h22h3V46z M33.8,16.3l-2.9-7.6c-0.1-0.3-0.5-0.6-0.9-0.6
			s-0.8,0.2-0.9,0.6l-2.9,7.6C26.1,16.5,26,16.7,26,17v19H6V6h48v30H34V17C34,16.7,33.9,16.5,33.8,16.3z M28.4,16l1.5-4.2l1.6,4.2
			H28.4z M29,18v18h-1V18H29z M31,18h1v18h-1V18z M58,36h-2V5c0-0.6-0.4-1-1-1H5C4.4,4,4,4.4,4,5v31H2V2h56V36z"/>
		
			<linearGradient id="SVGID_00000181774187091829450200000000169676314473953695_" gradientUnits="userSpaceOnUse" x1="38" y1="21" x2="51" y2="21">
			<stop  offset="0" style="stop-color:#DC468B"/>
			<stop  offset="0.5028" style="stop-color:#734AFD"/>
			<stop  offset="1" style="stop-color:#248FFE"/>
		</linearGradient>
		<path style="fill:url(#SVGID_00000181774187091829450200000000169676314473953695_);" d="M51,25v-8c0-0.6-0.4-1-1-1H38v1v1v3h2v-3
			h4v3h2v-3h3v6H38v2h12C50.6,26,51,25.6,51,25z"/>
		
			<linearGradient id="SVGID_00000094583243553083222240000011837914127887186565_" gradientUnits="userSpaceOnUse" x1="9" y1="21" x2="22" y2="21">
			<stop  offset="0" style="stop-color:#DC468B"/>
			<stop  offset="0.5028" style="stop-color:#734AFD"/>
			<stop  offset="1" style="stop-color:#248FFE"/>
		</linearGradient>
		<path style="fill:url(#SVGID_00000094583243553083222240000011837914127887186565_);" d="M9,17v8c0,0.6,0.4,1,1,1h12v-2H11v-6h3v3
			h2v-3h4v3h2v-3v-1v-1H10C9.4,16,9,16.4,9,17z"/>
		
			<linearGradient id="SVGID_00000131333449386038048810000003505681611288568969_" gradientUnits="userSpaceOnUse" x1="12" y1="29" x2="14" y2="29">
			<stop  offset="0" style="stop-color:#DC468B"/>
			<stop  offset="0.5028" style="stop-color:#734AFD"/>
			<stop  offset="1" style="stop-color:#248FFE"/>
		</linearGradient>
		<rect x="12" y="28" style="fill:url(#SVGID_00000131333449386038048810000003505681611288568969_);" width="2" height="2"/>
		
			<linearGradient id="SVGID_00000098935994648540736270000017196442590383284158_" gradientUnits="userSpaceOnUse" x1="16" y1="29" x2="18" y2="29">
			<stop  offset="0" style="stop-color:#DC468B"/>
			<stop  offset="0.5028" style="stop-color:#734AFD"/>
			<stop  offset="1" style="stop-color:#248FFE"/>
		</linearGradient>
		<rect x="16" y="28" style="fill:url(#SVGID_00000098935994648540736270000017196442590383284158_);" width="2" height="2"/>
		
			<linearGradient id="SVGID_00000088110545528409911250000016436319604812482984_" gradientUnits="userSpaceOnUse" x1="20" y1="29" x2="22" y2="29">
			<stop  offset="0" style="stop-color:#DC468B"/>
			<stop  offset="0.5028" style="stop-color:#734AFD"/>
			<stop  offset="1" style="stop-color:#248FFE"/>
		</linearGradient>
		<rect x="20" y="28" style="fill:url(#SVGID_00000088110545528409911250000016436319604812482984_);" width="2" height="2"/>
		
			<linearGradient id="SVGID_00000142880808818567958910000009271246858250520738_" gradientUnits="userSpaceOnUse" x1="38" y1="29" x2="40" y2="29">
			<stop  offset="0" style="stop-color:#DC468B"/>
			<stop  offset="0.5028" style="stop-color:#734AFD"/>
			<stop  offset="1" style="stop-color:#248FFE"/>
		</linearGradient>
		<rect x="38" y="28" style="fill:url(#SVGID_00000142880808818567958910000009271246858250520738_);" width="2" height="2"/>
		
			<linearGradient id="SVGID_00000074423571905702602090000013172984516087548070_" gradientUnits="userSpaceOnUse" x1="42" y1="29" x2="44" y2="29">
			<stop  offset="0" style="stop-color:#DC468B"/>
			<stop  offset="0.5028" style="stop-color:#734AFD"/>
			<stop  offset="1" style="stop-color:#248FFE"/>
		</linearGradient>
		<rect x="42" y="28" style="fill:url(#SVGID_00000074423571905702602090000013172984516087548070_);" width="2" height="2"/>
		
			<linearGradient id="SVGID_00000152953660880003002700000018175437090956241576_" gradientUnits="userSpaceOnUse" x1="46" y1="29" x2="48" y2="29">
			<stop  offset="0" style="stop-color:#DC468B"/>
			<stop  offset="0.5028" style="stop-color:#734AFD"/>
			<stop  offset="1" style="stop-color:#248FFE"/>
		</linearGradient>
		<rect x="46" y="28" style="fill:url(#SVGID_00000152953660880003002700000018175437090956241576_);" width="2" height="2"/>
		
			<linearGradient id="SVGID_00000168098744790604282870000004367793881424275109_" gradientUnits="userSpaceOnUse" x1="38" y1="13" x2="40" y2="13">
			<stop  offset="0" style="stop-color:#DC468B"/>
			<stop  offset="0.5028" style="stop-color:#734AFD"/>
			<stop  offset="1" style="stop-color:#248FFE"/>
		</linearGradient>
		<rect x="38" y="12" style="fill:url(#SVGID_00000168098744790604282870000004367793881424275109_);" width="2" height="2"/>
		
			<linearGradient id="SVGID_00000096744745252256455910000004154452123523819449_" gradientUnits="userSpaceOnUse" x1="42" y1="13" x2="44" y2="13">
			<stop  offset="0" style="stop-color:#DC468B"/>
			<stop  offset="0.5028" style="stop-color:#734AFD"/>
			<stop  offset="1" style="stop-color:#248FFE"/>
		</linearGradient>
		<rect x="42" y="12" style="fill:url(#SVGID_00000096744745252256455910000004154452123523819449_);" width="2" height="2"/>
		
			<linearGradient id="SVGID_00000114772464975311774000000006281340401606859141_" gradientUnits="userSpaceOnUse" x1="46" y1="13" x2="48" y2="13">
			<stop  offset="0" style="stop-color:#DC468B"/>
			<stop  offset="0.5028" style="stop-color:#734AFD"/>
			<stop  offset="1" style="stop-color:#248FFE"/>
		</linearGradient>
		<rect x="46" y="12" style="fill:url(#SVGID_00000114772464975311774000000006281340401606859141_);" width="2" height="2"/>
		
			<linearGradient id="SVGID_00000073718586323938718630000004837354243628955777_" gradientUnits="userSpaceOnUse" x1="12" y1="13" x2="14" y2="13">
			<stop  offset="0" style="stop-color:#DC468B"/>
			<stop  offset="0.5028" style="stop-color:#734AFD"/>
			<stop  offset="1" style="stop-color:#248FFE"/>
		</linearGradient>
		<rect x="12" y="12" style="fill:url(#SVGID_00000073718586323938718630000004837354243628955777_);" width="2" height="2"/>
		
			<linearGradient id="SVGID_00000044137616241506082690000007589678602545098418_" gradientUnits="userSpaceOnUse" x1="16" y1="13" x2="18" y2="13">
			<stop  offset="0" style="stop-color:#DC468B"/>
			<stop  offset="0.5028" style="stop-color:#734AFD"/>
			<stop  offset="1" style="stop-color:#248FFE"/>
		</linearGradient>
		<rect x="16" y="12" style="fill:url(#SVGID_00000044137616241506082690000007589678602545098418_);" width="2" height="2"/>
		
			<linearGradient id="SVGID_00000125604347860261609260000013682676041539786624_" gradientUnits="userSpaceOnUse" x1="20" y1="13" x2="22" y2="13">
			<stop  offset="0" style="stop-color:#DC468B"/>
			<stop  offset="0.5028" style="stop-color:#734AFD"/>
			<stop  offset="1" style="stop-color:#248FFE"/>
		</linearGradient>
		<rect x="20" y="12" style="fill:url(#SVGID_00000125604347860261609260000013682676041539786624_);" width="2" height="2"/>
	</g>
</g>
</svg>
