<svg xmlns="http://www.w3.org/2000/svg" xmlns:xlink="http://www.w3.org/1999/xlink" id="typescript" x="0" y="0" version="1.1" viewBox="0 0 48 48" style="enable-background:new 0 0 48 48" xml:space="preserve"><style type="text/css">.st0{fill:#fff}</style><g><path d="M47.46,28.85c-0.2,0.55-0.57,0.79-1.17,0.74c-0.28-0.02-0.54-0.08-0.76-0.28c-0.16-0.15-0.24-0.33-0.26-0.55 c0.15,0,0.29,0,0.43,0c0.13,0.35,0.45,0.51,0.87,0.42c0.09-0.02,0.19-0.06,0.27-0.11c0.23-0.16,0.22-0.48-0.03-0.61 c-0.14-0.07-0.31-0.11-0.46-0.16c-0.18-0.06-0.36-0.09-0.54-0.16c-0.62-0.24-0.55-0.99-0.21-1.28c0.42-0.36,1.22-0.33,1.6,0.07 c0.13,0.14,0.21,0.33,0.19,0.49c-0.14,0-0.27,0-0.41,0c-0.16-0.4-0.61-0.55-0.98-0.33c-0.14,0.08-0.21,0.19-0.21,0.35 c0.01,0.16,0.1,0.25,0.23,0.3c0.18,0.06,0.37,0.11,0.56,0.16c0.07,0.02,0.15,0.04,0.22,0.06c0.31,0.09,0.56,0.26,0.64,0.6 C47.46,28.65,47.46,28.75,47.46,28.85z" class="st0"/><path d="M20.45,17.26c0,0.24,0,0.47,0,0.7c-2.68,0-5.34,0-8.02,0c0,1.77,0,3.52,0,5.29c2.51,0,5.02,0,7.54,0 c0,0.24,0,0.47,0,0.71c-2.52,0-5.03,0-7.54,0c0,1.94,0,3.86,0,5.8c2.71,0,5.41,0,8.12,0c0,0.24,0,0.47,0,0.7c-2.98,0-5.95,0-8.94,0 c0-0.05,0-0.1,0-0.14c0-4.31,0-8.61,0-12.92c0-0.11,0.02-0.15,0.14-0.15c2.86,0,5.71,0,8.57,0C20.36,17.26,20.4,17.26,20.45,17.26z" class="st0"/><path d="M21.26,17.26c0.31,0,0.6,0,0.88,0c0.04,0,0.08,0.05,0.11,0.08c0.56,0.78,1.12,1.56,1.68,2.33 c0.79,1.1,1.58,2.2,2.36,3.29c0.02,0.03,0.04,0.05,0.09,0.11c3.1-4.41,6.41-8.63,9.77-12.82c-0.12,0.17-0.23,0.34-0.35,0.5 c-2.94,4.26-5.88,8.53-8.83,12.79c-0.07,0.1-0.06,0.15,0.01,0.25c1.58,2.18,3.16,4.37,4.74,6.55c0.02,0.03,0.04,0.06,0.08,0.11 c-0.18,0-0.33,0-0.48,0c-0.16,0-0.34,0.04-0.47-0.02c-0.13-0.06-0.2-0.24-0.29-0.37c-1.36-1.88-2.72-3.77-4.08-5.65 c-0.03-0.04-0.06-0.08-0.09-0.13c-0.03,0.03-0.05,0.06-0.07,0.08c-1.44,1.98-2.87,3.96-4.31,5.94c-0.08,0.11-0.15,0.15-0.29,0.15 c-0.25-0.01-0.5,0-0.76,0c0.02-0.04,0.04-0.07,0.06-0.09c1.59-2.18,3.17-4.36,4.76-6.54c0.14-0.2,0.14-0.12,0-0.31 c-1.47-2.05-2.94-4.1-4.41-6.15C21.31,17.35,21.29,17.32,21.26,17.26z" class="st0"/><path d="M15.2,37.73c-0.17-0.22-0.33-0.44-0.5-0.66c-1.62-2.16-3.25-4.31-4.85-6.48c-0.62-0.84-1.2-1.72-1.79-2.59 c-2.2-3.2-4.39-6.4-6.58-9.6c-0.02-0.03-0.04-0.06-0.09-0.08c-0.01,4.05-0.03,8.1-0.04,12.15c-0.28,0-0.54,0-0.81,0 c0-4.4,0-8.79,0-13.2c0.04,0,0.09,0,0.13,0c0.25,0,0.5,0,0.74,0c0.09,0,0.15,0.03,0.2,0.11c0.67,1,1.34,2.01,2.01,3.01 c2.69,4.02,5.37,8.03,8.06,12.05c1.15,1.73,2.31,3.45,3.46,5.18c0.03,0.04,0.05,0.08,0.07,0.11C15.21,37.72,15.21,37.73,15.2,37.73 z" class="st0"/><path d="M37.59,17.96c0,4.18,0,8.33,0,12.5c-0.27,0-0.53,0-0.81,0c0-4.16,0-8.32,0-12.5c-1.55,0-3.08,0-4.62,0 c0-0.24,0-0.46,0-0.7c0.04,0,0.08-0.01,0.13-0.01c3.27,0,6.55,0,9.82,0c0.11,0,0.14,0.03,0.14,0.14c-0.01,0.14-0.01,0.28,0,0.42 c0.01,0.11-0.02,0.14-0.14,0.14c-0.55-0.01-1.09,0-1.64,0c-0.91,0-1.82,0-2.73,0C37.69,17.96,37.64,17.96,37.59,17.96z" class="st0"/><path d="M44.26,26.67c0.12,0,0.23,0,0.33,0c0.03,0,0.06,0,0.1,0c0,0.03,0.01,0.05,0.01,0.08c0,0.67,0.01,1.34,0,2 c0,0.35-0.15,0.63-0.49,0.77c-0.35,0.14-0.8,0.06-1.04-0.18c-0.14-0.14-0.21-0.34-0.2-0.55c0.14,0,0.28,0,0.42,0 c0.03,0.22,0.15,0.36,0.39,0.38c0.29,0.03,0.48-0.13,0.49-0.43c0.01-0.23,0-0.46,0-0.69c0-0.42,0-0.83,0-1.25 C44.26,26.77,44.26,26.73,44.26,26.67z" class="st0"/><path d="M41.87,29.26c0-0.17,0.12-0.29,0.28-0.29c0.16,0,0.29,0.13,0.29,0.3c0,0.16-0.13,0.29-0.29,0.29 C41.99,29.55,41.87,29.43,41.87,29.26z" class="st0"/></g></svg>