<?xml version="1.0" encoding="utf-8"?>
<!-- Generator: Adobe Illustrator 27.1.1, SVG Export Plug-In . SVG Version: 6.00 Build 0)  -->
<svg version="1.1" id="Layer_1" xmlns="http://www.w3.org/2000/svg" xmlns:xlink="http://www.w3.org/1999/xlink" x="0px" y="0px"
	 viewBox="0 0 800 800" style="enable-background:new 0 0 800 800;" xml:space="preserve">
<style type="text/css">
	.st0{fill:url(#SVGID_1_);}
	.st1{fill:url(#SVGID_00000079464559923044922030000000761398591704836748_);}
</style>
<g>
	<linearGradient id="SVGID_1_" gradientUnits="userSpaceOnUse" x1="216.6465" y1="553.7131" x2="583.8931" y2="553.7131">
		<stop  offset="0" style="stop-color:#DC468B"/>
		<stop  offset="0.5028" style="stop-color:#734AFD"/>
		<stop  offset="1" style="stop-color:#248FFE"/>
	</linearGradient>
	<path class="st0" d="M458.9,362.2c-14.9-18.9-36.2-29.8-58.4-29.8c-22.2,0-43.5,10.8-58.5,29.8L240.4,491.1
		c-12,15.1-25.5,35.5-23.6,59.7c2,25.7,20.8,44.1,34.9,55.8l46.1,41L287.3,694c-4.3,18.7,0.2,38.2,12.5,53.6
		c13.6,17.1,35.5,27.4,58.6,27.4h84c24,0,45.4-9.5,58.7-26.1c12.3-15.2,16.7-34.6,12.4-54.6c0-0.1,0-0.2-0.1-0.2l-10.5-46.2
		l46.7-41.6c14.7-13,31.8-31.1,34.1-55.5c2.2-24.3-11.1-44.7-23-59.7L458.9,362.2z M462.2,717.5c-3.8,4.7-11,7.5-19.8,7.5h-84
		c-7.9,0-15.2-3.2-19.4-8.5c-2.8-3.5-3.8-7.3-2.9-11.2c0,0,0-0.1,0-0.1l9.3-40.9h110.1l9.2,40.7C465.6,710,464.8,714.2,462.2,717.5z
		 M533.9,546.2c-0.3,3.6-3.6,10.5-17.5,22.8l-50.9,45.3H335.6L284.6,569c-0.2-0.2-0.5-0.4-0.8-0.6c-10.7-8.8-16.8-16.4-17.2-21.4
		c-0.3-3.5,1.7-10.7,13-24.8l95.7-121.4V455c0,13.8,11.2,25,25,25s25-11.2,25-25v-54.7l96.1,121.9
		C532.3,535.9,534.2,542.8,533.9,546.2z"/>
	
		<linearGradient id="SVGID_00000101095062100869092850000016299355667573486507_" gradientUnits="userSpaceOnUse" x1="49.9995" y1="248.1289" x2="750" y2="248.1289">
		<stop  offset="0" style="stop-color:#DC468B"/>
		<stop  offset="0.5028" style="stop-color:#734AFD"/>
		<stop  offset="1" style="stop-color:#248FFE"/>
	</linearGradient>
	<path style="fill:url(#SVGID_00000101095062100869092850000016299355667573486507_);" d="M685,302h-36.7c-8.8,0-17.1,1.8-24.7,4.9
		L476.5,159.8c9.5-11.6,14.6-25.9,14.6-41.1c0-17.4-6.8-33.7-19.1-46l-26-26c-12.3-12.3-28.6-19.1-46-19.1c-17.4,0-33.7,6.8-46,19.1
		l-26,26c-23.8,23.8-25.3,61.6-4.4,87.1L176.4,306.9c-7.6-3.2-16-4.9-24.7-4.9H115c-35.8,0-65,29.2-65,65v36.7c0,35.8,29.2,65,65,65
		h36.7c35.8,0,65-29.2,65-65V367c0-8.8-1.8-17.1-4.9-24.7l147.1-147.1c11.6,9.5,25.9,14.6,41.1,14.6c15.2,0,29.5-5.2,41.1-14.6
		l147.1,147.1c-3.2,7.6-4.9,16-4.9,24.7v36.7c0,35.8,29.2,65,65,65H685c35.8,0,65-29.2,65-65V367C750,331.2,720.8,302,685,302z
		 M166.7,403.7c0,8.1-6.9,15-15,15H115c-8.1,0-15-6.9-15-15V367c0-8.1,6.9-15,15-15h36.7c8.1,0,15,6.9,15,15V403.7z M400,159.8
		c-4,0-7.8-1.6-10.7-4.4l0,0l-13-13c0,0,0,0,0,0s0,0,0,0l-13-13c-5.9-5.9-5.9-15.4,0-21.3l26-26c2.9-2.9,6.6-4.4,10.7-4.4
		s7.8,1.6,10.7,4.4l26,26c2.9,2.9,4.4,6.6,4.4,10.7c0,4-1.6,7.8-4.4,10.7l-12.9,12.9c0,0,0,0-0.1,0.1c0,0,0,0-0.1,0.1l-12.9,12.9
		C407.8,158.2,404,159.8,400,159.8z M700,403.7c0,8.1-6.9,15-15,15h-36.7c-8.1,0-15-6.9-15-15V367c0-8.1,6.9-15,15-15H685
		c8.1,0,15,6.9,15,15V403.7z"/>
</g>
</svg>
