<svg xmlns="http://www.w3.org/2000/svg" xmlns:xlink="http://www.w3.org/1999/xlink" id="Layer_1" x="0" y="0" version="1.1" viewBox="0 0 800 800" style="enable-background:new 0 0 800 800" xml:space="preserve"><style type="text/css">.st0{fill-rule:evenodd;clip-rule:evenodd;fill:url(#SVGID_1_)}</style><g id="_x31_77_x2C__frontend_x2C__interface_x2C__mobile_x2C__phone_x2C__developer"><g><linearGradient id="SVGID_1_" x1="104.275" x2="695.725" y1="399.5" y2="399.5" gradientUnits="userSpaceOnUse"><stop offset="0" style="stop-color:#dc468b"/><stop offset=".503" style="stop-color:#734afd"/><stop offset="1" style="stop-color:#248ffe"/></linearGradient><path d="M587.5,595.6H204.7v78.1v0.2v0.1l0,0.3v0.1v0.2v0.1v0.2v0l0,0.3l0,0.3l0,0l0,0.3l0,0l0,0.3l0,0.3l0,0.3l0,0 l0,0.2v0.1l0,0.2l0,0l0.1,0.3l0,0.3l0,0l0.1,0.3l0,0.3l0,0.3l0.1,0.3l0.1,0.3l0.1,0.3l0,0l0.1,0.2l0.1,0.3l0.1,0.2l0.1,0.3 l0.1,0.3l0.1,0.3l0.1,0.2l0.1,0.3l0.1,0.2l0.1,0.3l0.1,0.3l0.1,0.3l0.1,0.3l0.1,0.3l0.1,0.3l0.1,0.2l0.1,0.3l0.1,0.3l0.1,0.3 l0.1,0.2l0.1,0.3l0.2,0.2l0.1,0.3l0.1,0.3l0.2,0.3l0.1,0.2l0.2,0.2l0.2,0.2l0.2,0.3l0.1,0.2l0.2,0.3l0.2,0.2l0.2,0.3l0.2,0.2 l0.2,0.2l0.2,0.2l0.1,0.2l0.2,0.3l0.2,0.2l0.2,0.2l0.2,0.2l0.2,0.2l0.2,0.2l0.2,0.2c4.2,4.3,10.1,6.9,16.5,6.9H564l0,0h0.3h0.3 l0,0h0.3h0h0.3h0h0.3l0-0.1h0.3h0.1h0.3h0l0.3-0.1h0h0.2l0,0h0.3h0l0.2-0.1h0.1l0.2,0h0.1l0.2-0.1h0.1l0.2-0.1h0.1l0.2,0h0.1 l0.2,0h0.1l0.2-0.1h0.1l0.2,0l0.1,0h0.2l0.1-0.1l0.2,0h0.1l0.1,0l0.2-0.1l0.1,0h0.1l0.2,0l0.2-0.1l0.1,0l0.1-0.1h0.1l0.2,0l0.1,0 l0.1-0.1l0.1,0l0.2,0l0.1,0l0.2-0.1l0.1,0l0.1,0l0.1-0.1l0.2,0l0,0l0.2-0.1l0.1,0l0.2-0.1l0.1,0l0.2-0.1h0.1l0.2-0.1h0.1l0.2-0.1 l0,0l0.2-0.1h0.1l0.2-0.1h0.1l0.5-0.3l0-0.1l0.2-0.1l0,0l0.3-0.2l0,0l0.2-0.1l0,0l0.3-0.2l0,0l0.9-0.6h0l0.2-0.2l0,0l0.3-0.2 l0.2-0.1l0,0l0.2-0.1l0.1,0l0.4-0.3l0.1-0.1l0.7-0.5l0.2-0.2l0.1,0l0.4-0.4l0.1-0.1l0.1-0.1l0.1-0.1l0.1-0.1l0.1-0.1l0.1,0 l0.1-0.1l0.1-0.1l0.2-0.3c0.9-0.9,1.8-1.9,2.5-3v-0.1l0.7-0.9l0,0l0.3-0.5l0,0l0.4-0.7v0l0.1-0.2v0l0.1-0.2h0l0.1-0.3v0l0.2-0.2 v-0.1l0.1-0.2l0-0.1l0.1-0.2v0l0.1-0.3l0,0l0.1-0.3l0,0l0.1-0.2l0,0l0.1-0.3v0l0.2-0.5v-0.1l0,0l0.1-0.2l0,0l0.1-0.3v-0.1l0.1-0.2 l0,0l0.1-0.3v0l0.1-0.3l0,0l0.1-0.3v-0.1l0.1-0.2l0,0l0-0.3l0,0l0.1-0.2l0,0l0.1-0.3h0l0.1-0.3l0,0l0-0.3l0,0l0.1-0.3l0,0l0.1-0.3 l0,0l0-0.3l0,0l0-0.3l0,0l0-0.2l0-0.1l0-0.2V677l0-0.2l0,0l0-0.3h0v-0.3l0,0l0.1-0.3l0,0v-0.3h0v-0.3h0V675v0v-0.2l0-0.1v-0.2 v-0.1v-0.3v-0.3L587.5,595.6L587.5,595.6z M204.7,583.3h382.8v-16.1H436.3c-3.4,0-6.2-2.8-6.2-6.2V414.8c0-3.4,2.8-6.2,6.2-6.2 h151.1c0-105.7,0-211.4,0-317.1c0-6.4-2.6-12.3-6.9-16.5c-4.2-4.2-10.1-6.9-16.5-6.9H228.1c-6.4,0-12.3,2.6-16.6,6.9 c-4.2,4.2-6.9,10.1-6.9,16.5v39.8h332.1c3.4,0,6.2,2.8,6.2,6.2c0,3.4-2.8,6.2-6.2,6.2H204.7v37.8H249c3.4,0,6.2,2.8,6.2,6.2v101 c0,3.4-2.8,6.2-6.2,6.2h-44.3V583.3z M407.1,635.1c-2.8-2.8-6.8-4.6-11.1-4.6c-4.3,0-8.2,1.8-11,4.6c-2.8,2.8-4.6,6.7-4.6,11.1 s1.7,8.2,4.6,11.1c2.8,2.8,6.7,4.6,11,4.6c4.3,0,8.2-1.8,11.1-4.6c2.8-2.8,4.6-6.7,4.6-11.1S409.9,638,407.1,635.1z M396.1,618.2 c7.7,0,14.8,3.2,19.8,8.2c5.1,5.1,8.2,12.1,8.2,19.8c0,7.7-3.1,14.7-8.2,19.8c-5,5.1-12,8.2-19.8,8.2c-7.7,0-14.7-3.1-19.8-8.2 c-5.1-5.1-8.2-12.1-8.2-19.8c0-7.7,3.1-14.7,8.2-19.8C381.3,621.4,388.3,618.2,396.1,618.2z M442.5,421v133.8h151.2h0.2h58.1V421 C582.1,421,512.3,421,442.5,421z M233.1,55.7H564c9.9,0,18.8,4,25.3,10.5c6.5,6.5,10.5,15.4,10.5,25.3v289.2h14.8V63.6 c0-6.4-2.7-12.3-6.9-16.5c-4.3-4.3-10.1-6.9-16.6-6.9H255.3c-6.2,0-11.9,2.4-16.1,6.4C236.5,49.1,234.4,52.2,233.1,55.7z M366.2,109.1c-3.4,0-6.2-2.8-6.2-6.2c0-3.4,2.8-6.2,6.2-6.2h59.8c3.4,0,6.2,2.8,6.2,6.2c0,3.4-2.8,6.2-6.2,6.2H366.2z M461.7,451.9c-3.4,0-6.2-2.8-6.2-6.2c0-3.4,2.8-6.2,6.2-6.2h77.8c3.4,0,6.2,2.8,6.2,6.2c0,3.4-2.8,6.2-6.2,6.2H461.7z M461.7,477.7c-3.4,0-6.2-2.8-6.2-6.2s2.8-6.2,6.2-6.2h171.1c3.4,0,6.2,2.8,6.2,6.2s-2.8,6.2-6.2,6.2H461.7z M461.7,503.5 c-3.4,0-6.2-2.8-6.2-6.2c0-3.4,2.8-6.2,6.2-6.2h171.1c3.4,0,6.2,2.8,6.2,6.2c0,3.4-2.8,6.2-6.2,6.2H461.7z M461.7,529.3 c-3.4,0-6.2-2.8-6.2-6.2c0-3.4,2.8-6.2,6.2-6.2h171.1c3.4,0,6.2,2.8,6.2,6.2s-2.8,6.2-6.2,6.2H461.7z M176.5,244.3 c-3.4,0-6.2-2.8-6.2-6.2c0-3.4,2.8-6.2,6.2-6.2h15.8v-15.7c0-3.4,2.8-6.2,6.2-6.2c3.4,0,6.2,2.8,6.2,6.2v15.7h15.7 c3.4,0,6.2,2.8,6.2,6.2c0,3.4-2.8,6.2-6.2,6.2h-15.7V260c0,3.4-2.8,6.2-6.2,6.2c-3.4,0-6.2-2.8-6.2-6.2v-15.7H176.5z M309,189.1 c-3.4,0-6.2-2.8-6.2-6.2c0-3.4,2.8-6.2,6.2-6.2h104.9c3.4,0,6.2,2.8,6.2,6.2c0,3.4-2.8,6.2-6.2,6.2H309z M309,222.6 c-3.4,0-6.2-2.8-6.2-6.2c0-3.4,2.8-6.2,6.2-6.2h153.9c3.4,0,6.2,2.8,6.2,6.2c0,3.4-2.8,6.2-6.2,6.2H309z M309,256.1 c-3.4,0-6.2-2.8-6.2-6.2c0-3.4,2.8-6.2,6.2-6.2h229.5c3.4,0,6.2,2.8,6.2,6.2c0,3.4-2.8,6.2-6.2,6.2H309z M309,289.6 c-3.4,0-6.2-2.8-6.2-6.2c0-3.4,2.8-6.2,6.2-6.2h229.5c3.4,0,6.2,2.8,6.2,6.2c0,3.4-2.8,6.2-6.2,6.2H309z M309,323.2 c-3.4,0-6.2-2.8-6.2-6.2s2.8-6.2,6.2-6.2h229.5c3.4,0,6.2,2.8,6.2,6.2s-2.8,6.2-6.2,6.2H309z M119.4,734.7c-3.4,0-6.2-2.8-6.2-6.2 c0-3.4,2.8-6.2,6.2-6.2h397.4c3.4,0,6.2,2.8,6.2,6.2c0,3.4-2.8,6.2-6.2,6.2H119.4z M689.5,746.5c3.4,0,6.2,2.8,6.2,6.2 c0,3.4-2.8,6.2-6.2,6.2H338.9c-3.4,0-6.2-2.8-6.2-6.2c0-3.4,2.8-6.2,6.2-6.2H689.5z M310.7,746.5c3.4,0,6.2,2.8,6.2,6.2 c0,3.4-2.8,6.2-6.2,6.2h-34.4c-3.4,0-6.2-2.8-6.2-6.2c0-3.4,2.8-6.2,6.2-6.2H310.7z M544.2,734.7c-3.4,0-6.2-2.8-6.2-6.2 c0-3.4,2.8-6.2,6.2-6.2h34.4c3.4,0,6.2,2.8,6.2,6.2c0,3.4-2.8,6.2-6.2,6.2H544.2z M104.3,266.6c0,2.4,1.5,4.8,3.5,5.6 c4.1,2.1,8.9-1.1,8.9-5.6v-12.3c0-2.4-1.5-4.8-3.5-5.6c-4.1-2.1-8.9,1.1-8.9,5.6V266.6z M104.3,316c0,2.4,1.5,4.8,3.5,5.6 c4.1,2,8.9-1.1,8.9-5.6v-12.3c0-2.4-1.5-4.8-3.5-5.6c-4.1-2.1-8.9,1.1-8.9,5.6V316z M150.7,331.4c2.3,0,4.8-1.6,5.6-3.5 c2.1-4.1-1.1-8.8-5.6-8.8h-12.4c-2.3,0-4.7,1.5-5.5,3.5c-2.1,4.1,1.1,8.9,5.5,8.9H150.7L150.7,331.4z M148.1,371 c0,2.3,1.5,4.8,3.5,5.5c4.1,2.1,8.9-1.1,8.9-5.5v-12.4c0-2.3-1.5-4.8-3.5-5.5c-4.1-2.1-8.9,1.1-8.9,5.5V371z M148.1,420.4 c0,2.3,1.5,4.8,3.5,5.5c4.1,2.1,8.9-1.1,8.9-5.5V408c0-2.3-1.5-4.8-3.5-5.5c-4.1-2.1-8.9,1.1-8.9,5.5V420.4z M148.1,469.8 c0,2.3,1.5,4.7,3.5,5.5c4.1,2.1,8.9-1.1,8.9-5.5v-12.4c0-2.4-1.5-4.8-3.5-5.6c-4.1-2.1-8.9,1.1-8.9,5.6V469.8z M148.1,519.2 c0,2.4,1.5,4.8,3.5,5.6c4.1,2.1,8.9-1.1,8.9-5.6v-12.3c0-2.4-1.5-4.8-3.5-5.6c-4.1-2.1-8.9,1.1-8.9,5.6V519.2z M148.1,568.6 c0,2.4,1.5,4.8,3.5,5.6c4.1,2.1,8.9-1.1,8.9-5.6v-12.3c0-2.4-1.5-4.8-3.5-5.6c-4.1-2.1-8.9,1.1-8.9,5.6V568.6z M116.6,204.8 c0-2.4-1.5-4.8-3.5-5.6c-4.1-2.1-8.9,1.1-8.9,5.6v12.4c0,2.3,1.5,4.7,3.5,5.5c4.1,2.1,8.9-1.1,8.9-5.5V204.8z M242.8,282.5v-88.6 c-29.6,0-59.1,0-88.7,0v88.6C183.7,282.5,213.2,282.5,242.8,282.5z" class="st0"/></g></g></svg>