<?xml version="1.0" encoding="utf-8"?>
<!-- Generator: Adobe Illustrator 27.1.1, SVG Export Plug-In . SVG Version: 6.00 Build 0)  -->
<svg version="1.1" id="mongodb" xmlns="http://www.w3.org/2000/svg" xmlns:xlink="http://www.w3.org/1999/xlink" x="0px" y="0px"
	 viewBox="0 0 24 24" style="enable-background:new 0 0 24 24;" xml:space="preserve">
<style type="text/css">
	.st0{fill:#FFFFFF;}
</style>
<path class="st0" d="M13,24c-0.1,0-0.2,0-0.3,0l-0.6-0.2c-0.3-0.1-0.5-0.4-0.5-0.7c0-0.4,0-1.5-0.2-2.1c-0.4-0.4-1.3-1.2-2.2-2.4
	c-0.3-0.4-0.6-0.9-0.9-1.4C7.6,15.6,7.1,14,7,12.3c0-0.4,0-0.8,0-1.2c0.2-3.8,1.7-7.3,4.1-9.6c0.3-0.3,0.5-0.6,0.6-0.9
	C11.8,0.3,12,0,12.4,0c0.4,0,0.7,0.2,0.8,0.6c0.1,0.4,0.3,0.8,0.5,1.1c0,0,0,0.1,0.1,0.1c0,0.1,0.2,0.3,0.4,0.4
	c0.9,1,2.8,3.1,3.7,7.3c0.9,5.8-1.9,9.3-3.2,10.6c0,0,0,0,0,0.1c-0.3,0.3-0.6,0.5-0.7,0.6c-0.1,0.1-0.1,0.2-0.1,0.2
	c-0.1,0.5-0.1,1.6,0,2.2c0,0.3-0.1,0.5-0.3,0.7C13.3,23.9,13.1,24,13,24z M12.4,2.4c-0.1,0.1-0.2,0.2-0.2,0.2
	c-2.2,2-3.5,5.1-3.6,8.6c0,0.3,0,0.7,0,1c0.1,1.4,0.5,2.8,1.2,4.2c0.2,0.4,0.5,0.8,0.8,1.2c0.9,1.3,1.9,2.1,2.1,2.2
	c0,0,0.1,0.1,0.1,0.1c0-0.1,0.1-0.1,0.1-0.2c0-0.1,0.1-0.1,0.1-0.1c0.1-0.1,0.3-0.2,0.6-0.5c0,0,0.1-0.1,0.1-0.1
	c1.4-1.4,3.6-4.4,2.8-9.3C15.5,6,13.9,4.2,13,3.2C12.7,2.9,12.5,2.7,12.4,2.4C12.4,2.4,12.4,2.4,12.4,2.4z"/>
</svg>
