<svg xmlns="http://www.w3.org/2000/svg" xmlns:xlink="http://www.w3.org/1999/xlink" id="Layer_1" x="0" y="0" version="1.1" viewBox="0 0 1024 1024" style="enable-background:new 0 0 1024 1024" xml:space="preserve"><style type="text/css">.st0{fill:#fff}</style><path d="M531.88,720.65c-9.72-1.17-19.53-45.03-19.53-61.53c0,0,0-212.12,7-212.08	C524.81,447.04,531.88,720.65,531.88,720.65z" class="st0"/><path d="M512,11.78C235.74,11.78,11.78,235.74,11.78,512S235.74,1012.22,512,1012.22S1012.22,788.26,1012.22,512	S788.26,11.78,512,11.78z M559.71,717.88l-0.7,0.64c-6.2,5.76-12.76,11.14-19.65,16.07l-0.98,0.64	c-5.63,25.32-9.87,50.94-12.7,76.72h-12.06c-3.36-36.48-8.15-70.91-8.25-71.65v0.11l-1.75-1.24	c-15.39-11.23-129.17-99.27-122.12-247.03c7.55-158.43,100.39-236.32,118.48-250.47c11.68-12.47,12.15-17.23,13.06-29.59	c0.27,0.64,0.51,1.29,0.65,1.66c0,0,8.91,21.98,17.7,34.34c8.04,17.52,82.71,63.37,114.31,202.81c3.17,18.32,4.82,36.86,4.93,55.45	C651.22,617.77,592.42,687.66,559.71,717.88z" class="st0"/></svg>