<?xml version="1.0" encoding="utf-8"?>
<!-- Generator: Adobe Illustrator 27.1.1, SVG Export Plug-In . SVG Version: 6.00 Build 0)  -->
<svg version="1.1" id="Layer_1" xmlns="http://www.w3.org/2000/svg" xmlns:xlink="http://www.w3.org/1999/xlink" x="0px" y="0px"
	 viewBox="0 0 1024 1024" style="enable-background:new 0 0 1024 1024;" xml:space="preserve">
<style type="text/css">
	.st0{fill:#FFFFFF;}
</style>
<path class="st0" d="M478.5,0.8c-2.2,0.2-9.2,0.9-15.5,1.4C317.72,15.3,181.63,93.69,95.44,214.18
	c-48,66.99-78.69,142.99-90.29,223.48c-4.1,28.1-4.6,36.4-4.6,74.49s0.5,46.4,4.6,74.49c27.8,192.08,164.48,353.47,349.87,413.26
	c33.2,10.7,68.19,18,107.99,22.4c15.5,1.7,82.49,1.7,97.99,0c68.69-7.6,126.89-24.6,184.28-53.89c8.8-4.5,10.5-5.7,9.3-6.7
	c-0.8-0.6-38.3-50.9-83.29-111.69l-81.79-110.49L487,587.84c-56.39-83.39-102.79-151.59-103.19-151.59c-0.4-0.1-0.8,67.29-1,149.59
	c-0.3,144.09-0.4,149.89-2.2,153.29c-2.6,4.9-4.6,6.9-8.8,9.1c-3.2,1.6-6,1.9-21.1,1.9h-17.3l-4.6-2.9c-3-1.9-5.2-4.4-6.7-7.3
	l-2.1-4.5l0.2-200.48l0.3-200.58l3.1-3.9c1.6-2.1,5-4.8,7.4-6.1c4.1-2,5.7-2.2,23-2.2c20.4,0,23.8,0.8,29.1,6.6
	c1.5,1.6,56.99,85.19,123.39,185.88s157.18,238.18,201.78,305.67l80.99,122.69l4.1-2.7c36.3-23.6,74.69-57.19,105.09-92.19
	c64.69-74.29,106.39-164.88,120.39-261.47c4.1-28.1,4.6-36.4,4.6-74.49s-0.5-46.4-4.6-74.49C991.05,245.58,854.37,84.19,668.98,24.4
	C636.29,13.8,601.49,6.5,562.5,2.1C552.9,1.1,486.8,0,478.5,0.8L478.5,0.8z M687.88,310.17c4.8,2.4,8.7,7,10.1,11.8
	c0.8,2.6,1,58.19,0.8,183.48l-0.3,179.78l-31.7-48.6l-31.8-48.6V457.36c0-84.49,0.4-131.99,1-134.29c1.6-5.6,5.1-10,9.9-12.6
	c4.1-2.1,5.6-2.3,21.3-2.3C681.98,308.17,684.58,308.37,687.88,310.17L687.88,310.17z"/>
<path d="M784.27,945.21c-3.5,2.2-4.6,3.7-1.5,2c2.2-1.3,5.8-4,5.2-4.1C787.67,943.11,785.97,944.11,784.27,945.21z M777.37,949.71
	c-1.8,1.4-1.8,1.5,0.4,0.4c1.2-0.6,2.2-1.3,2.2-1.5C779.97,947.81,779.47,948.01,777.37,949.71L777.37,949.71z M772.37,952.71
	c-1.8,1.4-1.8,1.5,0.4,0.4c1.2-0.6,2.2-1.3,2.2-1.5C774.97,950.81,774.47,951.01,772.37,952.71L772.37,952.71z M767.38,955.71
	c-1.8,1.4-1.8,1.5,0.4,0.4c1.2-0.6,2.2-1.3,2.2-1.5C769.97,953.81,769.47,954.01,767.38,955.71L767.38,955.71z M759.78,959.71
	c-3.8,2-3.6,2.8,0.2,0.9c1.7-0.9,3-1.8,3-2C762.98,957.91,762.88,958.01,759.78,959.71z"/>
</svg>
