<?xml version="1.0" encoding="utf-8"?>
<!-- Generator: Adobe Illustrator 27.1.1, SVG Export Plug-In . SVG Version: 6.00 Build 0)  -->
<svg version="1.1" id="node-js" xmlns="http://www.w3.org/2000/svg" xmlns:xlink="http://www.w3.org/1999/xlink" x="0px" y="0px"
	 viewBox="0 0 24 24" style="enable-background:new 0 0 24 24;" xml:space="preserve">
<style type="text/css">
	.st0{fill:#FFFFFF;}
</style>
<g>
	<path class="st0" d="M9.5,20.7c-0.58,0.38-0.67,0.38-1.25,0.58c-0.1,0-0.38,0.1,0.1,0.38l2.78,1.63c0.29,0.19,0.58,0.19,0.86,0.19
		l0,0c0.29,0,0.58-0.1,0.86-0.19l8.35-4.89c0.58-0.29,0.86-0.86,0.86-1.54V7.17c0-0.67-0.29-1.25-0.86-1.54l-8.35-4.89
		c-0.48-0.29-1.25-0.29-1.73,0L2.79,5.63C2.21,5.92,1.92,6.59,1.92,7.17v9.69c0,0.67,0.29,1.25,0.86,1.54l2.21,1.34
		c1.06,0.58,1.44,0.58,1.92,0.58c1.54,0,2.5-0.96,2.5-2.59v-9.6c0-0.1-0.1-0.29-0.29-0.29H8.07c-0.1,0-0.29,0.1-0.29,0.29v9.6
		c0,0.77-0.77,1.44-2.02,0.86l-2.3-1.34c-0.1,0-0.1-0.1-0.1-0.19V7.17c0-0.1,0.1-0.19,0.1-0.19l8.35-4.89c0.1,0,0.19,0,0.29,0
		l8.35,4.89c0.1,0.1,0.1,0.1,0.1,0.19v9.79c0,0.1-0.1,0.19-0.1,0.19l-8.35,4.89c-0.1,0-0.19,0-0.29,0L9.7,20.7
		C9.7,20.7,9.6,20.7,9.5,20.7z"/>
	<path class="st0" d="M14.59,15.42c-2.21,0-2.69-0.58-2.88-1.63c0-0.1-0.1-0.19-0.19-0.19h-1.06c-0.1,0-0.19,0.1-0.19,0.29
		c0,1.44,0.77,3.07,4.41,3.07c2.59,0,4.13-1.06,4.13-2.88l0,0c0-1.82-1.25-2.3-3.74-2.69c-2.59-0.38-2.88-0.48-2.88-1.15
		c0-0.48,0.19-1.15,2.11-1.15c1.73,0,2.3,0.38,2.59,1.54c0,0.1,0.1,0.19,0.19,0.19h1.06c0.1,0,0.1,0,0.19-0.1
		c0.1-0.1,0.1-0.1,0.1-0.19c-0.19-2.02-1.54-2.98-4.13-2.98c-2.4,0-3.84,1.06-3.84,2.69c0,1.82,1.44,2.4,3.65,2.59
		c2.69,0.29,2.98,0.67,2.98,1.25C17.09,15.04,16.32,15.42,14.59,15.42z"/>
</g>
</svg>
