<?xml version="1.0" encoding="utf-8"?>
<!-- Generator: Adobe Illustrator 27.1.1, SVG Export Plug-In . SVG Version: 6.00 Build 0)  -->
<svg version="1.1" id="node-js" xmlns="http://www.w3.org/2000/svg" xmlns:xlink="http://www.w3.org/1999/xlink" x="0px" y="0px"
	 viewBox="0 0 24 24" style="enable-background:new 0 0 24 24;" xml:space="preserve">
<style type="text/css">
	.st0{fill:#FFFFFF;}
</style>
<path class="st0" d="M9.4,21c-0.6,0.4-0.7,0.4-1.3,0.6c-0.1,0-0.4,0.1,0.1,0.4l2.9,1.7c0.3,0.2,0.6,0.2,0.9,0.2l0,0
	c0.3,0,0.6-0.1,0.9-0.2l8.7-5.1c0.6-0.3,0.9-0.9,0.9-1.6V6.9c0-0.7-0.3-1.3-0.9-1.6l-8.7-5.1c-0.5-0.3-1.3-0.3-1.8,0L2.4,5.3
	C1.8,5.6,1.5,6.3,1.5,6.9v10.1c0,0.7,0.3,1.3,0.9,1.6L4.7,20c1.1,0.6,1.5,0.6,2,0.6c1.6,0,2.6-1,2.6-2.7v-10c0-0.1-0.1-0.3-0.3-0.3
	H7.9c-0.1,0-0.3,0.1-0.3,0.3v10c0,0.8-0.8,1.5-2.1,0.9l-2.4-1.4c-0.1,0-0.1-0.1-0.1-0.2V6.9c0-0.1,0.1-0.2,0.1-0.2l8.7-5.1
	c0.1,0,0.2,0,0.3,0l8.7,5.1c0.1,0.1,0.1,0.1,0.1,0.2v10.2c0,0.1-0.1,0.2-0.1,0.2l-8.7,5.1c-0.1,0-0.2,0-0.3,0L9.6,21
	C9.6,21,9.5,21,9.4,21z"/>
<path class="st0" d="M14.7,15.5c-2.3,0-2.8-0.6-3-1.7c0-0.1-0.1-0.2-0.2-0.2h-1.1c-0.1,0-0.2,0.1-0.2,0.3c0,1.5,0.8,3.2,4.6,3.2
	c2.7,0,4.3-1.1,4.3-3l0,0c0-1.9-1.3-2.4-3.9-2.8c-2.7-0.4-3-0.5-3-1.2c0-0.5,0.2-1.2,2.2-1.2c1.8,0,2.4,0.4,2.7,1.6
	c0,0.1,0.1,0.2,0.2,0.2h1.1c0.1,0,0.1,0,0.2-0.1s0.1-0.1,0.1-0.2c-0.2-2.1-1.6-3.1-4.3-3.1c-2.5,0-4,1.1-4,2.8
	c0,1.9,1.5,2.5,3.8,2.7c2.8,0.3,3.1,0.7,3.1,1.3C17.3,15.1,16.5,15.5,14.7,15.5z"/>
</svg>
