<?xml version="1.0" encoding="utf-8"?>
<!-- Generator: Adobe Illustrator 27.1.1, SVG Export Plug-In . SVG Version: 6.00 Build 0)  -->
<svg version="1.1" id="react" xmlns="http://www.w3.org/2000/svg" xmlns:xlink="http://www.w3.org/1999/xlink" x="0px" y="0px"
	 viewBox="0 0 24 24" style="enable-background:new 0 0 24 24;" xml:space="preserve">
<style type="text/css">
	.st0{fill:#FFFFFF;}
</style>
<path class="st0" d="M12,9.9c-1.2,0-2.1,1-2.1,2.1s1,2.1,2.1,2.1s2.1-1,2.1-2.1S13.2,9.9,12,9.9z"/>
<path class="st0" d="M4.5,15.8c0.2,0.1,0.4,0.1,0.6,0.2C5.1,16.3,5,16.6,5,16.8c-0.5,2.6-0.1,4.7,1.1,5.4c1.3,0.7,3.4,0,5.5-1.8
	c0.2-0.1,0.3-0.3,0.5-0.5c0.2,0.2,0.4,0.4,0.6,0.6c2,1.7,4,2.4,5.2,1.7c1.3-0.7,1.7-2.9,1.1-5.6c0-0.2-0.1-0.4-0.1-0.6
	c0.1,0,0.3-0.1,0.4-0.1C22,14.9,24,13.5,24,12c0-1.4-1.8-2.8-4.4-3.7v0c-0.3-0.1-0.5-0.2-0.8-0.2c0-0.2,0.1-0.3,0.1-0.5
	c0.6-2.8,0.2-5-1.1-5.8c-1.2-0.7-3.2,0-5.3,1.8c-0.2,0.2-0.4,0.4-0.6,0.5c-0.1-0.1-0.3-0.2-0.4-0.4C9.5,1.9,7.4,1.1,6.1,1.8
	C4.8,2.5,4.5,4.6,5,7.3C5,7.5,5.1,7.8,5.2,8.1C4.9,8.1,4.6,8.2,4.3,8.3C1.8,9.2,0,10.6,0,12C0,13.4,1.9,14.9,4.5,15.8z M10.9,19.6
	c-0.8,0.7-1.7,1.3-2.6,1.7c-0.5,0.2-1.1,0.3-1.7,0.1C5.8,20.9,5.5,19.3,6,17c0.1-0.3,0.1-0.5,0.2-0.8c1.1,0.2,2.1,0.4,3.2,0.5
	c0.6,0.9,1.3,1.7,2,2.5C11.2,19.3,11,19.5,10.9,19.6L10.9,19.6z M16.8,10.8c-0.2-0.4-0.4-0.8-0.7-1.2c-0.2-0.4-0.5-0.8-0.7-1.2
	c0.8,0.1,1.5,0.2,2.2,0.4C17.4,9.5,17.1,10.2,16.8,10.8z M16.9,13.2c0.3,0.7,0.6,1.4,0.8,2.1c-0.7,0.2-1.5,0.3-2.2,0.4
	c0.3-0.4,0.5-0.8,0.7-1.2C16.4,14,16.6,13.6,16.9,13.2z M16.3,12c-0.3,0.6-0.7,1.3-1,1.9c-0.4,0.6-0.7,1.2-1.1,1.8
	c-0.7,0.1-1.4,0.1-2.2,0.1s-1.4,0-2.1-0.1c-0.4-0.6-0.8-1.2-1.2-1.8S8,12.7,7.7,12h0c0.3-0.6,0.6-1.3,1-1.9s0.7-1.2,1.1-1.8
	c0.7-0.1,1.4-0.1,2.2-0.1s1.5,0,2.2,0.1c0.4,0.6,0.8,1.2,1.1,1.8S16,11.3,16.3,12z M7.8,9.6c-0.2,0.4-0.5,0.8-0.7,1.2
	c-0.3-0.7-0.5-1.4-0.8-2c0.7-0.1,1.4-0.3,2.1-0.4C8.3,8.8,8.1,9.2,7.8,9.6z M7.2,13.2L7.2,13.2c0.2,0.4,0.4,0.8,0.7,1.2
	c0.2,0.4,0.5,0.8,0.7,1.2c-0.7-0.1-1.5-0.2-2.2-0.4C6.6,14.6,6.9,13.9,7.2,13.2z M12,18.5L12,18.5c-0.5-0.5-1-1.1-1.4-1.7
	c0.4,0,0.9,0,1.4,0c0.5,0,1,0,1.4,0C13,17.4,12.5,17.9,12,18.5z M18.2,19.9L18.2,19.9c0,0.6-0.3,1.1-0.8,1.5
	c-0.7,0.4-2.3-0.1-4.1-1.6c-0.2-0.2-0.4-0.4-0.6-0.5c0.7-0.8,1.4-1.6,2-2.5c1.1-0.1,2.1-0.3,3.2-0.5c0,0.2,0.1,0.4,0.1,0.6
	C18.3,17.8,18.3,18.8,18.2,19.9z M18.6,9c0.2,0.1,0.5,0.1,0.7,0.2C21.5,10,23,11.1,23,12c0,0.9-1.6,2.1-4,2.9
	c-0.1,0-0.3,0.1-0.4,0.1c-0.3-1-0.7-2-1.2-3C17.9,11,18.3,10,18.6,9z M13.3,4.3L13.3,4.3c1.7-1.5,3.4-2.1,4.1-1.7
	c0.8,0.5,1.1,2.3,0.6,4.7c0,0.2-0.1,0.3-0.1,0.5c-1-0.2-2.1-0.4-3.2-0.5c-0.6-0.9-1.3-1.7-2-2.5C12.9,4.7,13.1,4.5,13.3,4.3z
	 M12,5.5c0.5,0.5,1,1.1,1.4,1.7c-0.9,0-1.9,0-2.8,0C11.1,6.6,11.5,6.1,12,5.5z M6.6,2.7c0.8-0.5,2.5,0.2,4.4,1.8
	c0.1,0.1,0.2,0.2,0.4,0.3c-0.7,0.8-1.4,1.6-2,2.5C8.2,7.4,7.2,7.6,6.1,7.8C6.1,7.6,6,7.3,6,7.1C5.5,4.8,5.8,3.1,6.6,2.7z M4.6,9.3
	C4.9,9.2,5.2,9.1,5.4,9c0.3,1,0.7,2,1.1,3c-0.4,1-0.8,2-1.2,3l0,0C5.2,15,5,14.9,4.8,14.8c-1-0.3-2.1-0.8-3-1.5
	C1.4,13.1,1.1,12.5,1,12C1,11.1,2.5,10,4.6,9.3z"/>
</svg>
