<?xml version="1.0" encoding="utf-8"?>
<!-- Generator: Adobe Illustrator 27.1.1, SVG Export Plug-In . SVG Version: 6.00 Build 0)  -->
<svg version="1.1" id="typescript" xmlns="http://www.w3.org/2000/svg" xmlns:xlink="http://www.w3.org/1999/xlink" x="0px" y="0px"
	 viewBox="0 0 48 48" style="enable-background:new 0 0 48 48;" xml:space="preserve">
<style type="text/css">
	.st0{fill:#FFFFFF;}
</style>
<path class="st0" d="M6,6v36h36V6H6z M26.9,25h-4.7v13.8h-3V25h-4.6v-2.5h12.3V25z M32.3,39c-1.5,0-3-0.3-4.4-1l0.7-2.5
	c1.2,0.7,2.6,1,3.9,1c1.9,0,3-0.9,3-2.2s-0.8-2-2.9-2.7c-2.7-1-4.4-2.4-4.4-4.7c0-2.7,2.2-4.7,5.8-4.7c1.3,0,2.7,0.2,3.9,0.8
	l-0.7,2.4c-1-0.5-2.1-0.8-3.3-0.8c-1.9,0-2.7,1-2.7,2c0,1.2,0.9,1.8,3.1,2.7c2.8,1.1,4.2,2.5,4.2,4.8C38.5,36.7,36.5,39,32.3,39z"/>
</svg>
