<?xml version="1.0" encoding="utf-8"?>
<!-- Generator: Adobe Illustrator 27.1.1, SVG Export Plug-In . SVG Version: 6.00 Build 0)  -->
<svg version="1.1" id="typescript" xmlns="http://www.w3.org/2000/svg" xmlns:xlink="http://www.w3.org/1999/xlink" x="0px" y="0px"
	 viewBox="0 0 48 48" style="enable-background:new 0 0 48 48;" xml:space="preserve">
<style type="text/css">
	.st0{fill:#FFFFFF;}
</style>
<path class="st0" d="M5.44,5.44v37.12h37.12V5.44H5.44z M25.01,37.32c-0.55,1.11-1.59,1.83-2.8,2.18c-1.86,0.42-3.64,0.16-4.96-0.63
	c-0.89-0.53-1.58-1.37-2.05-2.35l2.82-1.74c0.03,0,0.1,0.14,0.2,0.3c0.36,0.6,0.67,1.02,1.28,1.32c0.6,0.19,1.91,0.32,2.42-0.74
	c0.31-0.54,0.21-2.29,0.21-4.19c0-3,0.01-5.98,0.01-8.98h3.48l-0.01,0.09c0,3.2,0.02,6.38,0,9.56
	C25.63,34.12,25.79,35.88,25.01,37.32z M39.34,36.16c-1.21,4.13-7.94,4.27-10.63,1.55c-0.56-0.65-0.93-0.97-1.25-1.72l2.83-1.63
	c0.77,1.16,1.46,1.79,2.71,2.07c1.7,0.21,3.41-0.37,3.04-2.18c-0.39-1.49-3.48-1.83-5.59-3.41c-2.13-1.44-2.64-4.92-0.88-6.92
	c0.6-0.74,1.6-1.3,2.65-1.55l1.09-0.14c2.11-0.05,3.41,0.51,4.38,1.6c0.28,0.28,0.49,0.56,0.91,1.21c-1.11,0.69-1.11,0.69-2.71,1.74
	c-0.35-0.74-0.91-1.21-1.51-1.39c-0.93-0.28-2.11,0.02-2.34,1.02c-0.09,0.3-0.07,0.58,0.07,1.09c0.38,0.86,1.64,1.23,2.78,1.76
	c3.27,1.33,4.37,2.75,4.65,4.44l-0.07-0.1C39.71,35.07,39.38,36.02,39.34,36.16z"/>
</svg>
