<?xml version="1.0" encoding="utf-8"?>
<!-- Generator: Adobe Illustrator 27.1.1, SVG Export Plug-In . SVG Version: 6.00 Build 0)  -->
<svg version="1.1" id="Capa_1" xmlns="http://www.w3.org/2000/svg" xmlns:xlink="http://www.w3.org/1999/xlink" x="0px" y="0px"
	 viewBox="0 0 800 800" style="enable-background:new 0 0 800 800;" xml:space="preserve">
<style type="text/css">
	.st0{fill:url(#SVGID_1_);}
	.st1{fill:url(#SVGID_00000057117088175820054890000001917034946542091660_);}
	.st2{fill:url(#SVGID_00000059994470954443254040000009717244604948098689_);}
	.st3{fill:url(#SVGID_00000104680309175783956290000014595137752949108613_);}
	.st4{fill:url(#SVGID_00000178203833056498193530000015389457475964320649_);}
</style>
<g>
	<g>
		<g>
			<linearGradient id="SVGID_1_" gradientUnits="userSpaceOnUse" x1="0" y1="369.8388" x2="747.1456" y2="369.8388">
				<stop  offset="0" style="stop-color:#DC468B"/>
				<stop  offset="0.5028" style="stop-color:#734AFD"/>
				<stop  offset="1" style="stop-color:#248FFE"/>
			</linearGradient>
			<path class="st0" d="M538.9,671.3c-4.1-2.5-7.8-5.9-10.6-10c-1.3-1.9-2.4-3.9-3.4-6H53.9V191h639.4v303.2
				c13.6,1.2,25.1,10.2,29.9,22.5c4.3-2.3,9-3.8,14-4.2c3.4-0.3,6.7-0.1,10,0.6V75.4c0-24.8-20.1-44.9-44.9-44.9H44.9
				C20.1,30.5,0,50.6,0,75.4v588.9c0,24.8,20.1,44.9,44.9,44.9h489.9c-3.8-7.7-4.7-16.5-2.5-24.9
				C533.7,679.5,535.9,675.1,538.9,671.3z M644,105.9c0-9.2,7.4-16.6,16.6-16.6h16.6c9.2,0,16.6,7.4,16.6,16.6v18.8
				c0,9.2-7.4,16.6-16.6,16.6h-16.6c-9.2,0-16.6-7.4-16.6-16.6V105.9z M566.9,105.9c0-9.2,7.4-16.6,16.6-16.6H600
				c9.2,0,16.6,7.4,16.6,16.6v18.8c0,9.2-7.4,16.6-16.6,16.6h-16.6c-9.2,0-16.6-7.4-16.6-16.6V105.9z M489.8,105.9
				c0-9.2,7.4-16.6,16.6-16.6h16.6c9.2,0,16.6,7.4,16.6,16.6v18.8c0,9.2-7.4,16.6-16.6,16.6h-16.6c-9.2,0-16.6-7.4-16.6-16.6V105.9z
				"/>
			
				<linearGradient id="SVGID_00000029016435014373878680000017526026306435981717_" gradientUnits="userSpaceOnUse" x1="549.4907" y1="646.0718" x2="799.999" y2="646.0718">
				<stop  offset="0" style="stop-color:#DC468B"/>
				<stop  offset="0.5028" style="stop-color:#734AFD"/>
				<stop  offset="1" style="stop-color:#248FFE"/>
			</linearGradient>
			<path style="fill:url(#SVGID_00000029016435014373878680000017526026306435981717_);" d="M799.9,639.7l-5-28.3
				c-0.7-3.8-4.3-6.3-8.1-5.7l-25.1,4.4c-3-7.1-6.9-13.7-11.4-19.8l16.4-19.6c1.2-1.4,1.8-3.3,1.6-5.1c-0.2-1.8-1.1-3.6-2.5-4.8
				l-22-18.4c-1.4-1.2-3.3-1.8-5.1-1.6c-1.8,0.2-3.6,1.1-4.7,2.5l-16.4,19.5c-6.7-3.4-13.9-6.1-21.5-7.8v-25.5c0-3.9-3.1-7-7-7
				h-28.7c-3.9,0-7,3.1-7,7v25.5c-7.5,1.7-14.7,4.4-21.5,7.8l-16.4-19.5c-2.5-3-6.9-3.3-9.9-0.9l-22,18.4c-1.4,1.2-2.3,2.9-2.5,4.8
				c-0.2,1.8,0.4,3.7,1.6,5.1l16.4,19.6c-4.6,6.1-8.4,12.7-11.4,19.8l-25.1-4.4c-3.8-0.7-7.4,1.9-8.1,5.7l-5,28.3
				c-0.3,1.8,0.1,3.7,1.2,5.2c1.1,1.5,2.7,2.6,4.5,2.9l25.1,4.4c0.4,7.8,1.8,15.3,3.9,22.5l-22.1,12.8c-1.6,0.9-2.8,2.5-3.3,4.2
				c-0.5,1.8-0.2,3.7,0.7,5.3l14.3,24.8c0.9,1.6,2.5,2.8,4.2,3.3c0.6,0.2,1.2,0.2,1.8,0.2c1.2,0,2.4-0.3,3.5-0.9l22.1-12.8
				c5.2,5.6,11.1,10.5,17.5,14.7l-8.7,24c-0.6,1.7-0.6,3.7,0.2,5.4s2.2,3,3.9,3.6l27,9.8c0.8,0.3,1.6,0.4,2.4,0.4c1,0,2-0.2,3-0.7
				c1.7-0.8,3-2.2,3.6-3.9l8.7-24c3.7,0.5,7.6,0.7,11.4,0.7c3.9,0,7.7-0.2,11.4-0.7l8.7,24c0.6,1.7,1.9,3.2,3.6,3.9
				c0.9,0.4,1.9,0.7,3,0.7c0.8,0,1.6-0.1,2.4-0.4l27-9.8c1.7-0.6,3.2-1.9,3.9-3.6c0.8-1.7,0.9-3.6,0.2-5.4l-8.7-24
				c6.4-4.2,12.3-9.1,17.5-14.7l22.1,12.8c1.1,0.6,2.3,0.9,3.5,0.9c0.6,0,1.2-0.1,1.8-0.2c1.8-0.5,3.3-1.7,4.2-3.3l14.3-24.8
				c0.9-1.6,1.2-3.5,0.7-5.3c-0.5-1.8-1.7-3.3-3.3-4.2l-22.1-12.8c2.2-7.2,3.5-14.7,3.9-22.5l25.1-4.4c1.8-0.3,3.5-1.4,4.5-2.9
				C799.8,643.4,800.2,641.5,799.9,639.7z M674.7,684.6c-21.3,0-38.5-17.2-38.5-38.5s17.2-38.5,38.5-38.5
				c21.3,0,38.5,17.2,38.5,38.5S696,684.6,674.7,684.6z"/>
			<g>
				
					<linearGradient id="SVGID_00000137833624241748051040000005411475497894522500_" gradientUnits="userSpaceOnUse" x1="146.8698" y1="392.3063" x2="313.7582" y2="392.3063">
					<stop  offset="0" style="stop-color:#DC468B"/>
					<stop  offset="0.5028" style="stop-color:#734AFD"/>
					<stop  offset="1" style="stop-color:#248FFE"/>
				</linearGradient>
				<path style="fill:url(#SVGID_00000137833624241748051040000005411475497894522500_);" d="M313.8,448.4c0-9.1-5.3-17.4-13.5-21.2
					l-75.2-34.9l75.2-34.9c8.2-3.8,13.5-12.1,13.5-21.2v-0.6c0-8-4-15.4-10.8-19.7c-3.7-2.4-8.1-3.7-12.6-3.7
					c-3.4,0-6.8,0.7-9.8,2.2l-120.2,55.9c-8.2,3.8-13.5,12.1-13.5,21.2v1.7c0,9,5.3,17.3,13.5,21.2l120.2,55.9
					c3.1,1.4,6.4,2.2,9.8,2.2c4.5,0,8.8-1.3,12.6-3.7c6.8-4.3,10.8-11.7,10.8-19.7L313.8,448.4L313.8,448.4z"/>
				
					<linearGradient id="SVGID_00000066480037207201650350000016403123095788805010_" gradientUnits="userSpaceOnUse" x1="310.3424" y1="391.7243" x2="436.806" y2="391.7243">
					<stop  offset="0" style="stop-color:#DC468B"/>
					<stop  offset="0.5028" style="stop-color:#734AFD"/>
					<stop  offset="1" style="stop-color:#248FFE"/>
				</linearGradient>
				<path style="fill:url(#SVGID_00000066480037207201650350000016403123095788805010_);" d="M432.3,255.3c-4.4-6-11.4-9.6-18.9-9.6
					h-0.6c-10.2,0-19.1,6.5-22.2,16.2l-79.2,245.3c-2.3,7.1-1,14.9,3.4,20.9c4.4,6,11.4,9.6,18.9,9.6h0.6c10.2,0,19.1-6.5,22.2-16.2
					l79.2-245.3C438,269.1,436.7,261.3,432.3,255.3z"/>
				
					<linearGradient id="SVGID_00000124861654005980153170000013819421911943227054_" gradientUnits="userSpaceOnUse" x1="433.3931" y1="392.3073" x2="600.2834" y2="392.3073">
					<stop  offset="0" style="stop-color:#DC468B"/>
					<stop  offset="0.5028" style="stop-color:#734AFD"/>
					<stop  offset="1" style="stop-color:#248FFE"/>
				</linearGradient>
				<path style="fill:url(#SVGID_00000124861654005980153170000013819421911943227054_);" d="M586.8,370.3l-120.2-55.9
					c-3-1.4-6.4-2.2-9.8-2.2c-4.5,0-8.8,1.3-12.6,3.6c-6.8,4.3-10.8,11.7-10.8,19.7v0.6c0,9,5.3,17.4,13.5,21.2l75.2,34.9
					l-75.2,34.9c-8.2,3.8-13.5,12.1-13.5,21.2v0.6c0,8,4,15.4,10.8,19.7c3.8,2.4,8.1,3.7,12.6,3.7c3.4,0,6.7-0.7,9.8-2.2l120.2-55.9
					c8.2-3.8,13.5-12.1,13.5-21.2v-1.7C600.3,382.4,595,374.1,586.8,370.3z"/>
			</g>
		</g>
	</g>
</g>
</svg>
